<svg xmlns="http://www.w3.org/2000/svg" viewBox="0 0 64 64" role="img" aria-labelledby="title desc">
  <title id="title">Gyanvatsala Library</title>
  <desc id="desc">Stylized stacked books logo</desc>
  <defs>
    <linearGradient id="coverA" x1="0%" x2="100%" y1="0%" y2="100%">
      <stop offset="0%" stop-color="#38bdf8" />
      <stop offset="100%" stop-color="#2563eb" />
    </linearGradient>
    <linearGradient id="coverB" x1="0%" x2="100%" y1="0%" y2="100%">
      <stop offset="0%" stop-color="#f97316" />
      <stop offset="100%" stop-color="#ef4444" />
    </linearGradient>
    <linearGradient id="coverC" x1="0%" x2="100%" y1="0%" y2="100%">
      <stop offset="0%" stop-color="#22c55e" />
      <stop offset="100%" stop-color="#14b8a6" />
    </linearGradient>
  </defs>
  <rect width="64" height="64" rx="16" fill="#0f172a" />
  <path d="M16 18h24a6 6 0 0 1 6 6v6H22a6 6 0 0 0-6 6z" fill="url(#coverA)" />
  <path d="M12 28h28a6 6 0 0 1 6 6v6H18a6 6 0 0 0-6 6z" fill="url(#coverB)" />
  <path d="M18 8h26a6 6 0 0 1 6 6v6H24a6 6 0 0 0-6 6z" fill="url(#coverC)" />
  <path d="M20 18h2v24h-2zm4 0h2v24h-2zm4 0h2v24h-2z" fill="#e2e8f0" opacity=".9" />
</svg>
