<svg xmlns="http://www.w3.org/2000/svg" width="1200" height="630" viewBox="0 0 1200 630">
  <defs>
    <linearGradient id="bg" x1="0%" x2="100%" y1="0%" y2="100%">
      <stop offset="0%" stop-color="#020617" />
      <stop offset="50%" stop-color="#0f172a" />
      <stop offset="100%" stop-color="#1d4ed8" />
    </linearGradient>
    <linearGradient id="accent" x1="0%" x2="100%" y1="0%" y2="100%">
      <stop offset="0%" stop-color="#38bdf8" />
      <stop offset="100%" stop-color="#ef4444" />
    </linearGradient>
  </defs>
  <rect width="1200" height="630" fill="url(#bg)" />
  <circle cx="1020" cy="110" r="180" fill="#38bdf8" opacity="0.12" />
  <circle cx="150" cy="540" r="220" fill="#ef4444" opacity="0.12" />
  <rect x="78" y="74" width="132" height="132" rx="32" fill="#0f172a" stroke="#ffffff" stroke-opacity=".12" />
  <path d="M110 124h56a12 12 0 0 1 12 12v12h-56a12 12 0 0 0-12 12z" fill="#38bdf8" />
  <path d="M98 152h64a12 12 0 0 1 12 12v12h-64a12 12 0 0 0-12 12z" fill="#ef4444" />
  <path d="M122 96h56a12 12 0 0 1 12 12v12h-56a12 12 0 0 0-12 12z" fill="#22c55e" />
  <text x="78" y="300" fill="#ffffff" font-family="Georgia, serif" font-size="72" font-weight="700">
    Gyanvatsala Library
  </text>
  <text x="78" y="384" fill="#cbd5e1" font-family="Arial, sans-serif" font-size="38">
    Library management system for seats, ebooks, student fees,
  </text>
  <text x="78" y="434" fill="#cbd5e1" font-family="Arial, sans-serif" font-size="38">
    reminders, dashboards, and reading-room operations.
  </text>
  <rect x="78" y="492" width="420" height="18" rx="9" fill="url(#accent)" />
</svg>
